<!DOCTYPE svg PUBLIC "-//W3C//DTD SVG 20010904//EN" "http://www.w3.org/TR/2001/REC-SVG-20010904/DTD/svg10.dtd">
<svg version="1.0" xmlns="http://www.w3.org/2000/svg" width="672px" height="336px" viewBox="0 0 6720 3360" preserveAspectRatio="xMidYMid meet">
<g id="layer1" fill="#000000" stroke="none">
 <path d="M1452 3027 l-173 -82 -90 -115 -91 -115 -111 -6 c-62 -4 -232 -7 -378 -8 -204 -1 -269 -4 -277 -14 -14 -16 -46 -427 -35 -438 5 -5 39 -13 75 -18 37 -5 72 -12 78 -16 6 -4 10 -100 10 -272 l0 -267 -34 -31 c-19 -17 -39 -49 -46 -72 -11 -36 -11 -46 4 -67 9 -14 34 -35 56 -46 22 -11 40 -23 40 -26 0 -25 24 -153 31 -167 6 -9 31 -28 57 -41 l47 -24 613 -7 613 -8 41 -81 c25 -50 89 -141 166 -239 l126 -157 148 -86 c147 -85 148 -86 355 -140 l208 -54 432 0 433 0 14 -22 c8 -13 25 -49 37 -80 12 -31 29 -63 38 -71 21 -19 180 -71 189 -62 4 3 12 39 17 78 l10 72 35 5 c29 4 37 11 46 39 13 40 21 45 99 61 33 7 68 17 79 22 10 6 91 158 187 355 l169 345 147 -6 c82 -4 381 -13 667 -22 486 -14 523 -14 600 2 115 24 113 23 121 101 15 171 11 160 68 190 l52 28 3 153 3 154 -46 83 -45 83 0 121 0 120 38 10 c20 6 60 15 87 22 28 6 56 16 63 22 9 7 12 63 10 236 l-3 226 -316 3 -317 2 -123 131 c-115 122 -129 134 -208 170 l-84 39 -156 -1 -156 0 -82 -37 c-98 -44 -249 -165 -323 -258 l-48 -62 -579 -6 c-318 -3 -832 -9 -1143 -12 l-565 -6 -91 98 c-50 55 -112 131 -138 171 -48 71 -49 72 -145 112 -87 37 -253 73 -318 70 -10 0 -96 -37 -191 -82z m2022 -1846 c10 -15 26 -375 17 -384 -10 -10 -444 -38 -452 -29 -4 4 -10 94 -14 199 -6 172 -5 194 9 199 9 3 87 9 173 14 238 11 261 11 267 1z m648 -19 c8 -8 -26 -375 -37 -391 -9 -16 -381 -15 -391 0 -8 13 -43 322 -44 378 l0 34 232 -7 c128 -4 236 -10 240 -14z m-1280 -11 c9 -8 29 -321 22 -333 -3 -4 -35 -8 -72 -8 -66 0 -68 1 -154 63 l-87 62 -25 108 c-15 59 -26 112 -26 117 0 12 330 2 342 -9z m1648 13 c0 -9 -172 -314 -180 -319 -13 -8 -27 305 -13 318 8 8 193 9 193 1z"/>
 </g>

</svg>